# xmcd
#
# Track frame offsets:
#	150
#	14772
#	32472
#	49666
#	61298
#	79948
#	93712
#	106381
#	129098
#	143734
#	162308
#	176487
#	192735
#	208656
#	224289
#	242175
#	257741
#	271456
#	292861
#	312238
#
# Disc length: 4500 seconds
#
# Revision: 0
# Processed by: cddbd v1.4PL0 Copyright (c) Steve Scherf et al.
# Submitted via: EasyCDDAExtractor 4.6.9.1
#
DISCID=28119214
DTITLE=Emmylou Harris - Portraits - Disc 3
DYEAR=1996
DGENRE=Country
TTITLE0=In My Dreams
TTITLE1=Love Is
TTITLE2=To Know Him Is To Love Him (w-Parton and Ronstadt)
TTITLE3=The Pain Of Loving You (w-Parton and Ronstadt)
TTITLE4=Farther Along (w-Parton and Ronstadt)
TTITLE5=Angel Band
TTITLE6=I Still Miss Someone
TTITLE7=A River For Him
TTITLE8=Heartbreak Hill
TTITLE9=Icy Blue Hot
TTITLE10=Gulf Coast Highway (w-Willie Nelson)
TTITLE11=We Believe In Happy Endings (w-Conlee)
TTITLE12=West Texas Waltz (w-Flaco)
TTITLE13=Rollin' And Ramblin' (The Death Of Hank Williams)
TTITLE14=Casey's Last Ride
TTITLE15=Hard Times
TTITLE16=Calling My Children Home
TTITLE17=Walls Of Time
TTITLE18=When I Paint My Masterpiece
TTITLE19=No Regrets
EXTD=
EXTT0=
EXTT1=
EXTT2=
EXTT3=
EXTT4=
EXTT5=
EXTT6=
EXTT7=
EXTT8=
EXTT9=
EXTT10=
EXTT11=
EXTT12=
EXTT13=
EXTT14=
EXTT15=
EXTT16=
EXTT17=
EXTT18=
EXTT19=
PLAYORDER=
